<svg xmlns="http://www.w3.org/2000/svg" x="0px" y="0px" width="100" height="100" viewBox="0,0,256,256">
<g fill="#ffffff" fill-rule="nonzero" stroke="none" stroke-width="1" stroke-linecap="butt" stroke-linejoin="miter" stroke-miterlimit="10" stroke-dasharray="" stroke-dashoffset="0" font-family="none" font-weight="none" font-size="none" text-anchor="none" style="mix-blend-mode: normal"><g transform="scale(5.12,5.12)"><path d="M25,4c-3.85415,0 -7,3.14585 -7,7c0,2.78022 1.64104,5.18438 4,6.3125v0.77344c-0.36986,0.10487 -0.73632,0.22331 -1.0957,0.36719l-18.06836,7.25c-1.17413,0.47096 -1.84356,1.58424 -1.88086,2.68164c-0.00696,0.20482 0.01633,0.41056 0.05273,0.61523h-0.00781v6.25586c0,0.76718 0.44359,1.47341 1.13672,1.80469l14.92969,7.13867c5.01711,2.39912 10.85008,2.39912 15.86719,0l14.92773,-7.13867c0.69391,-0.33101 1.13867,-1.037 1.13867,-1.80469v-6.25586h-0.00781c0.03616,-0.20395 0.05967,-0.40911 0.05273,-0.61328c-0.0373,-1.09733 -0.70714,-2.21207 -1.88086,-2.68359l-18.06836,-7.25h-0.00195c-0.35841,-0.14336 -0.72427,-0.2619 -1.09375,-0.36719v-0.77344c2.35896,-1.12812 4,-3.53228 4,-6.3125c0,-3.85415 -3.14585,-7 -7,-7zM25,6c2.77327,0 5,2.22673 5,5c0,2.77327 -2.22673,5 -5,5c-2.77327,0 -5,-2.22673 -5,-5c0,-2.77327 2.22673,-5 5,-5zM24,17.91992c0.3276,0.04738 0.65968,0.08008 1,0.08008c0.34032,0 0.6724,-0.0327 1,-0.08008v10.99414c0,0.56503 -0.43497,1 -1,1c-0.56503,0 -1,-0.43497 -1,-1zM22,20.18555v8.72852c0,1.64497 1.35503,3 3,3c1.64497,0 3,-1.35503 3,-3v-8.7168c0.11641,0.04119 0.23602,0.06511 0.35156,0.11133l18.06641,7.25c0.43928,0.17647 0.614,0.51361 0.62695,0.89453c0.01295,0.38092 -0.13805,0.72997 -0.56445,0.93555l-15.40039,7.42578c-3.84218,1.85295 -8.31798,1.85295 -12.16016,0l-15.40234,-7.42578c-0.42625,-0.2055 -0.57741,-0.55445 -0.56445,-0.93555c0.01295,-0.3811 0.18808,-0.71849 0.62695,-0.89453l18.06836,-7.25c0.11614,-0.0465 0.23426,-0.08158 0.35156,-0.12305zM11.5,27c-1.933,0 -3.5,0.89543 -3.5,2c0,1.10457 1.567,2 3.5,2c1.933,0 3.5,-0.89543 3.5,-2c0,-1.10457 -1.567,-2 -3.5,-2zM3,31.35742l15.05078,7.25781c4.38982,2.11705 9.50862,2.11705 13.89844,0l15.05078,-7.25781v3.89844l-14.92773,7.14063c-4.47289,2.13888 -9.67164,2.13888 -14.14453,0l-14.92773,-7.14062z"></path></g></g>
</svg>